<?xml version="1.0" standalone="no"?>
<!DOCTYPE svg PUBLIC "-//W3C//DTD SVG 20010904//EN"
 "http://www.w3.org/TR/2001/REC-SVG-20010904/DTD/svg10.dtd">
<svg version="1.0" xmlns="http://www.w3.org/2000/svg"
 width="1200.000000pt" height="1200.000000pt" viewBox="0 0 1200.000000 1200.000000"
 preserveAspectRatio="xMidYMid meet">
<metadata>
Created by potrace 1.15, written by Peter Selinger 2001-2017
</metadata>
<g transform="translate(0.000000,1200.000000) scale(0.100000,-0.100000)"
fill="#000000" stroke="none">
<path d="M5845 9669 c-77 -44 -146 -84 -153 -88 -8 -5 24 -59 107 -180 65 -95
122 -173 125 -174 5 -2 216 437 216 449 0 7 -128 74 -141 74 -8 0 -77 -36
-154 -81z"/>
<path d="M6084 9413 c-60 -129 -110 -240 -112 -247 -2 -10 241 -372 543 -809
11 -16 41 34 239 397 124 228 226 419 226 424 0 5 -127 84 -282 175 -156 90
-333 194 -394 229 l-110 65 -110 -234z"/>
<path d="M4903 9121 l-712 -416 -1 -100 0 -100 446 -544 447 -543 51 108 c29
60 211 450 406 867 195 416 357 757 360 757 3 0 12 -12 21 -26 l16 -26 12 30
c11 26 10 34 -5 57 l-17 27 -15 -28 -14 -27 -19 24 c-10 13 -69 99 -131 191
-62 92 -117 167 -123 167 -5 -1 -330 -189 -722 -418z"/>
<path d="M7027 9128 c-8 -13 -112 -203 -232 -423 -120 -220 -220 -404 -222
-408 -3 -5 -15 1 -27 12 l-23 21 -11 -25 c-10 -21 -9 -30 5 -51 l16 -26 15 27
c12 23 16 25 26 14 7 -8 210 -302 451 -654 240 -352 443 -646 449 -653 10 -10
47 51 174 285 l162 297 0 580 -1 581 -326 190 c-180 105 -353 205 -385 223
l-57 33 -14 -23z"/>
<path d="M5530 8230 c-221 -473 -406 -860 -409 -860 -3 0 -12 10 -20 22 l-13
22 -15 -27 c-7 -15 -15 -27 -18 -27 -2 0 -195 234 -430 520 -234 286 -428 520
-431 520 -2 0 -4 -409 -4 -908 l0 -908 93 -54 c50 -29 139 -81 197 -115 l105
-62 229 491 c126 270 233 495 238 501 5 5 15 0 25 -14 l16 -24 14 27 c8 15 17
24 22 22 4 -3 122 -144 262 -315 192 -235 257 -307 265 -298 16 18 834 1524
834 1536 0 10 -520 774 -544 799 -10 10 -95 -164 -416 -848z"/>
<path d="M6498 8158 c-20 -35 -208 -380 -418 -768 -211 -388 -385 -707 -388
-710 -2 -3 -12 5 -21 17 l-18 22 -19 -24 -19 -24 -255 314 c-140 172 -257 314
-260 314 -4 1 -437 -914 -457 -965 -4 -11 572 -354 593 -354 5 0 92 153 193
340 101 187 187 340 189 340 3 0 14 -8 24 -17 20 -17 28 -13 42 22 5 14 -1 22
376 -440 189 -231 349 -426 355 -434 11 -11 65 17 322 167 l308 181 199 366
c109 201 202 368 207 370 4 3 14 -4 22 -16 l15 -21 17 26 18 26 115 -169 115
-170 29 17 28 16 0 416 0 415 -23 -40 c-13 -22 -76 -138 -141 -257 -65 -120
-122 -218 -127 -218 -5 0 -14 9 -21 20 -12 18 -13 18 -29 -6 l-17 -26 -44 64
c-25 34 -229 331 -453 658 -224 327 -410 599 -415 603 -4 5 -23 -20 -42 -55z"/>
<path d="M7316 6514 c-91 -169 -165 -308 -164 -309 6 -6 543 314 541 322 -3
16 -195 293 -202 293 -4 0 -83 -138 -175 -306z"/>
<path d="M5496 6318 c-88 -161 -170 -311 -183 -334 l-23 -41 337 -198 c265
-156 346 -198 373 -198 26 0 76 24 203 99 92 54 166 102 165 106 -5 14 -700
858 -707 858 -4 0 -78 -132 -165 -292z"/>
<path d="M5900 4625 l0 -65 70 0 70 0 0 65 0 65 -70 0 -70 0 0 -65z"/>
<path d="M5580 4559 l0 -120 -22 15 c-15 10 -45 16 -85 16 -55 0 -67 -4 -95
-29 l-33 -29 0 -237 0 -237 33 -29 c28 -26 40 -29 96 -29 49 0 69 5 90 21 l26
20 0 -20 c0 -19 6 -21 65 -21 l65 0 0 400 0 400 -70 0 -70 0 0 -121z m-2 -381
l-3 -183 -45 0 -45 0 -3 170 c-1 93 0 175 2 182 3 8 23 13 51 13 l45 0 -2
-182z"/>
<path d="M4442 4625 c-58 -25 -62 -49 -62 -372 0 -385 -5 -377 223 -371 l129
3 29 33 29 32 0 308 c0 341 0 340 -66 368 -46 19 -237 18 -282 -1z m206 -368
l2 -268 -62 3 -63 3 -3 255 c-1 140 0 261 3 268 3 9 22 12 62 10 l58 -3 3
-268z"/>
<path d="M6167 4633 c-4 -3 -7 -28 -7 -55 l0 -48 70 0 70 0 0 -325 0 -325 70
0 70 0 0 325 0 325 65 0 65 0 0 55 0 55 -198 0 c-109 0 -202 -3 -205 -7z"/>
<path d="M4960 4175 l0 -295 70 0 70 0 0 215 c0 202 1 216 20 235 13 13 33 20
59 20 44 0 47 6 47 70 -1 43 -2 45 -32 48 -22 2 -40 -5 -63 -23 l-31 -27 0 26
c0 25 -1 26 -70 26 l-70 0 0 -295z"/>
<path d="M5900 4175 l0 -295 70 0 70 0 0 295 0 295 -70 0 -70 0 0 -295z"/>
<path d="M6743 4450 c-45 -27 -53 -67 -53 -275 0 -208 8 -248 53 -275 27 -17
51 -20 144 -20 129 0 156 7 183 52 18 30 20 51 20 243 0 290 -3 295 -203 295
-93 0 -117 -3 -144 -20z m191 -86 c14 -5 16 -31 16 -189 0 -200 1 -195 -60
-195 -61 0 -60 -5 -60 195 0 166 2 184 18 188 27 7 69 8 86 1z"/>
<path d="M7252 4093 l3 -378 55 -1 c30 0 61 2 68 4 8 3 12 32 12 99 l0 94 22
-15 c27 -19 125 -21 163 -4 50 23 55 48 55 282 0 140 -4 224 -11 240 -23 50
-139 74 -201 42 -24 -13 -28 -13 -28 0 0 11 -16 14 -70 14 l-70 0 2 -377z
m238 81 l0 -185 -47 3 -48 3 -3 170 c-1 93 0 175 2 182 3 8 23 13 51 13 l45 0
0 -186z"/>
</g>
</svg>
